<?xml version="1.0"?><svg version="1.1" id="圖層_1" xmlns="http://www.w3.org/2000/svg" x="0" y="0" viewBox="0 0 100 100" xml:space="preserve"><path d="M86.971 45.269c-1.011 0-2.061.211-3.121.628l-12.143 4.769c4.134-4.023 6.709-9.641 6.709-15.851 0-12.202-9.927-22.129-22.129-22.129-10.72 0-19.681 7.663-21.701 17.798-2.865-2.997-6.897-4.87-11.361-4.87-8.671 0-15.725 7.054-15.725 15.725 0 5.411 2.748 10.192 6.921 13.023a3.395 3.395 0 0 0-.591.295 3.401 3.401 0 0 0-1.56 2.859v22.319c0 4.125 3.356 7.481 7.481 7.481h41.825c4.125 0 7.481-3.356 7.481-7.481v-8.519a10.966 10.966 0 0 0 2.581 1.465l12.213 4.798c1.06.416 2.109.627 3.12.627 3.204 0 5.529-2.17 5.529-5.161V50.429c0-2.99-2.326-5.16-5.529-5.16z" fill="#d1d1d1"/><path d="M89.553 72.93c0 1.618-1.803 2.234-4.006 1.369l-12.212-4.797c-2.203-.865-4.006-2.898-4.006-4.515V58.26c0-1.618 1.803-3.65 4.006-4.515l12.212-4.797c2.203-.865 4.006-.25 4.006 1.368V72.93z" fill="#454545"/><path d="M56.74 15.972c-10.344 0-18.729 8.385-18.729 18.729 0 10.343 8.385 18.73 18.729 18.73s18.729-8.386 18.729-18.73c0-10.344-8.385-18.729-18.729-18.729zm-5.705 15.979c-2.582-1.354-5.603-3.578-6.422-4.397-1.366-1.366-.457-2.672.91-4.038 1.367-1.367 2.672-2.276 4.038-.91.82.82 3.043 3.84 4.397 6.422a5.04 5.04 0 0 0-2.923 2.923zm5.705 6.738a3.987 3.987 0 1 1 0-7.974 3.987 3.987 0 0 1 0 7.974z" fill="#454545"/><path d="M23.679 28.9c-6.807 0-12.325 5.518-12.325 12.325S16.872 53.55 23.679 53.55s12.325-5.518 12.325-12.325S30.485 28.9 23.679 28.9zM18.96 49.093c-.96.96-1.878.321-2.839-.64-.961-.961-1.6-1.879-.64-2.839.576-.576 2.7-2.14 4.516-3.092a3.552 3.552 0 0 0 2.055 2.055c-.953 1.815-2.516 3.939-3.092 4.516zm4.719-5.223a2.645 2.645 0 1 1 0-5.292 2.646 2.646 0 1 1 0 5.292z" fill="#454545"/><path d="M56.514 58.872c-6.722 0-12.809-2.76-17.194-7.205h-1.508c-3.233 4.434-8.464 7.323-14.36 7.323-2.613 0-5.092-.572-7.329-1.589V79.72a4.093 4.093 0 0 0 4.081 4.081h41.825a4.093 4.093 0 0 0 4.081-4.081V56.88a24.023 24.023 0 0 1-9.596 1.992z" fill="#454545"/><metadata xmlns:d="https://loading.io/stock/">
<d:name>cinema</d:name>
<d:tags>film,movie,footage,camera,projector,theatre,theater,cinema,map</d:tags>
<d:license>by</d:license>
<d:slug>3m3n7a</d:slug>
</metadata></svg>