<?xml version="1.0" encoding="UTF-8"?>
<svg id="Layer_1" data-name="Layer 1" xmlns="http://www.w3.org/2000/svg" viewBox="0 0 156.35 124.57">
  <defs>
    <style>
      .cls-1 {
        fill: #2eaae1;
      }

      .cls-1, .cls-2, .cls-3, .cls-4 {
        stroke-width: 0px;
      }

      .cls-2, .cls-3 {
        fill: #424244;
      }

      .cls-3 {
        opacity: .1;
      }

      .cls-4 {
        fill: #b5d338;
      }
    </style>
  </defs>
  <polygon class="cls-2" points="61.99 77.07 56.28 77.07 56.28 61.26 38.9 46.7 38.9 13.36 44.61 13.36 44.61 44.04 61.99 58.6 61.99 77.07"/>
  <path class="cls-2" d="M42.17,16.22c-4.47,0-8.11-3.64-8.11-8.11S37.7,0,42.17,0s8.11,3.64,8.11,8.11-3.64,8.11-8.11,8.11ZM42.17,5.71c-1.32,0-2.4,1.08-2.4,2.4s1.07,2.4,2.4,2.4,2.4-1.08,2.4-2.4-1.08-2.4-2.4-2.4Z"/>
  <rect class="cls-2" x="38.66" y="22.19" width="5.71" height="45.96" transform="translate(-19.77 47.99) rotate(-50.04)"/>
  <path class="cls-2" d="M21.2,35.02c-4.47,0-8.11-3.64-8.11-8.11s3.64-8.11,8.11-8.11,8.11,3.64,8.11,8.11-3.64,8.11-8.11,8.11ZM21.2,24.51c-1.32,0-2.4,1.08-2.4,2.4s1.08,2.4,2.4,2.4,2.4-1.08,2.4-2.4-1.07-2.4-2.4-2.4Z"/>
  <polygon class="cls-2" points="71.03 77.07 65.32 77.07 65.32 55.7 52.47 46.65 52.47 31.87 58.18 31.87 58.18 43.69 71.03 52.73 71.03 77.07"/>
  <path class="cls-2" d="M55.32,34.72c-4.47,0-8.11-3.64-8.11-8.11s3.64-8.11,8.11-8.11,8.11,3.64,8.11,8.11-3.64,8.11-8.11,8.11ZM55.32,24.22c-1.32,0-2.4,1.07-2.4,2.4s1.07,2.4,2.4,2.4,2.4-1.08,2.4-2.4-1.08-2.4-2.4-2.4Z"/>
  <rect class="cls-2" x="75.32" y="11.39" width="5.71" height="64.67"/>
  <path class="cls-2" d="M78.17,16.24c-4.47,0-8.11-3.64-8.11-8.11S73.7.02,78.17.02s8.11,3.64,8.11,8.11-3.64,8.11-8.11,8.11ZM78.17,5.73c-1.32,0-2.4,1.08-2.4,2.4s1.07,2.4,2.4,2.4,2.4-1.08,2.4-2.4-1.08-2.4-2.4-2.4Z"/>
  <polygon class="cls-2" points="100.22 77.07 94.51 77.07 94.51 58.6 111.89 44.04 111.89 13.36 117.6 13.36 117.6 46.7 100.22 61.26 100.22 77.07"/>
  <path class="cls-2" d="M114.33,16.22c-4.47,0-8.11-3.64-8.11-8.11s3.64-8.11,8.11-8.11,8.11,3.64,8.11,8.11-3.64,8.11-8.11,8.11ZM114.33,5.71c-1.32,0-2.4,1.08-2.4,2.4s1.08,2.4,2.4,2.4,2.4-1.08,2.4-2.4-1.07-2.4-2.4-2.4Z"/>
  <rect class="cls-2" x="92" y="42.32" width="45.96" height="5.71" transform="translate(-2.18 84.36) rotate(-39.94)"/>
  <path class="cls-2" d="M135.3,35.02c-4.47,0-8.11-3.64-8.11-8.11s3.64-8.11,8.11-8.11,8.11,3.64,8.11,8.11-3.64,8.11-8.11,8.11ZM135.3,24.51c-1.32,0-2.4,1.08-2.4,2.4s1.07,2.4,2.4,2.4,2.4-1.08,2.4-2.4-1.08-2.4-2.4-2.4Z"/>
  <polygon class="cls-2" points="91.18 77.07 85.47 77.07 85.47 52.73 98.32 43.69 98.32 31.87 104.03 31.87 104.03 46.65 91.18 55.7 91.18 77.07"/>
  <path class="cls-2" d="M101.17,34.72c-4.47,0-8.11-3.64-8.11-8.11s3.64-8.11,8.11-8.11,8.11,3.64,8.11,8.11-3.64,8.11-8.11,8.11ZM101.17,24.22c-1.32,0-2.4,1.07-2.4,2.4s1.08,2.4,2.4,2.4,2.4-1.08,2.4-2.4-1.07-2.4-2.4-2.4Z"/>
  <path class="cls-1" d="M53.65,77.98c4.9,0,8.87,3.97,8.87,8.87v24.09c0,4.9-3.97,8.87-8.87,8.87H18.57c-4.9,0-8.87-3.97-8.87-8.87l-4.54-32.95h48.48"/>
  <path class="cls-4" d="M102.16,77.98h48.48s-4.54,32.95-4.54,32.95c0,4.9-3.97,8.87-8.87,8.87h-35.07c-4.9,0-8.87-3.97-8.87-8.87v-24.09c0-4.9,3.97-8.87,8.87-8.87"/>
  <path class="cls-2" d="M149.8,78.92l-4.33,31.47c0,4.68-3.79,8.47-8.47,8.47h-33.49c-4.68,0-8.47-3.79-8.47-8.47v-23c0-4.68,3.79-8.47,8.47-8.47h46.3M156.35,73.2h-52.85c-7.82,0-14.18,6.36-14.18,14.18v23c0,7.82,6.36,14.18,14.18,14.18h33.49c7.67,0,13.94-6.12,14.18-13.74l4.29-31.13.89-6.49h0Z"/>
  <path class="cls-2" d="M52.85,78.92c4.68,0,8.47,3.79,8.47,8.47v23c0,4.68-3.79,8.47-8.47,8.47H19.36c-4.68,0-8.47-3.79-8.47-8.47l-4.33-31.47h46.3M52.85,73.2H0l.89,6.49,4.29,31.13c.23,7.62,6.5,13.74,14.18,13.74h33.49c7.82,0,14.18-6.36,14.18-14.18v-23c0-7.82-6.36-14.18-14.18-14.18h0Z"/>
  <polygon class="cls-2" points="96.4 81.77 60.51 81.77 60.51 76.06 97.37 76.06 96.4 81.77"/>
  <path class="cls-3" d="M52.85,78.56H6.55l3.09,22.41,50.87-17.55c-1.36-2.87-4.27-4.86-7.65-4.86Z"/>
  <path class="cls-3" d="M149.8,78.56h-46.3c-4.68,0-8.47,3.79-8.47,8.47v12.53l54.47-18.79.3-2.2Z"/>
</svg>