<?xml version="1.0" encoding="UTF-8"?>
<svg version="1.1" xmlns="http://www.w3.org/2000/svg" width="300" height="300">
<path d="M0 0 C0.79291946 0.21611435 1.58583893 0.4322287 2.40278625 0.65489197 C15.09431055 4.16723451 27.69568451 8.01238257 40.29760742 11.83129883 C44.06849308 12.97372695 47.84228891 14.10621299 51.61685467 15.236413 C54.56017988 16.1194244 57.50148293 17.00902668 60.44227028 17.90044975 C61.83327758 18.32097037 63.22498617 18.73917932 64.61743736 19.15489388 C83.96620847 24.93908307 83.96620847 24.93908307 88.41796875 30.44140625 C88.86785156 30.97378906 89.31773437 31.50617187 89.78125 32.0546875 C94.6202278 39.6343253 94.53981813 46.22255495 94.50952148 55.07202148 C94.5152306 56.48550454 94.52219695 57.89898298 94.53031921 59.31245422 C94.54821918 63.13950506 94.54708666 66.96632617 94.54137683 70.79340625 C94.53827627 74.0008247 94.54438798 77.20819957 94.55041558 80.4156118 C94.56445271 87.99578028 94.56291006 95.57583609 94.55151367 103.15600586 C94.54007028 110.93864227 94.55404595 118.72093255 94.58091015 126.50352329 C94.6031881 133.21216372 94.60967642 139.9206965 94.60383373 146.62937123 C94.60048718 150.62385749 94.60272215 154.61812275 94.62008476 158.61257744 C94.63574278 162.37943453 94.6313939 166.14578774 94.61277962 169.91262627 C94.60743264 171.92528992 94.62146874 173.93797723 94.63647461 175.95059204 C94.43236401 201.69434178 82.43642059 219.22982696 64.72460938 236.87646484 C48.93953633 252.22836929 28.990121 262.95482024 9.10546875 272.12890625 C7.87981201 272.70511719 7.87981201 272.70511719 6.62939453 273.29296875 C4.01177336 274.50569068 1.37631686 275.6667325 -1.26953125 276.81640625 C-2.07769287 277.19240967 -2.88585449 277.56841309 -3.71850586 277.95581055 C-10.29864457 280.70510651 -14.41542744 279.77405108 -20.89453125 277.12890625 C-21.56871094 276.88487061 -22.24289063 276.64083496 -22.9375 276.3894043 C-39.81821452 270.23354169 -56.36615691 261.69849076 -70.89453125 251.12890625 C-71.51134766 250.6896582 -72.12816406 250.25041016 -72.76367188 249.79785156 C-95.15615376 233.82022077 -112.98634387 215.0069145 -117.89453125 187.12890625 C-118.29627113 182.21773887 -118.3255339 177.33522921 -118.31445312 172.40942383 C-118.32181416 170.98531946 -118.3304062 169.56122101 -118.34011841 168.13713074 C-118.3621174 164.31085087 -118.3652765 160.48478763 -118.3633709 156.65845323 C-118.36325031 153.45016572 -118.37184925 150.24192269 -118.38014841 147.03364772 C-118.39930055 139.46226095 -118.40229466 131.89098441 -118.39550781 124.31958008 C-118.38885667 116.53323204 -118.41179308 108.74735646 -118.44882154 100.96110421 C-118.47957982 94.24733802 -118.49087245 87.53372347 -118.48698473 80.81988829 C-118.48492541 76.8222678 -118.49027073 72.82501623 -118.51487732 68.82746315 C-118.53724725 65.07031431 -118.53518303 61.31393318 -118.5149498 57.55677986 C-118.50995265 55.53584209 -118.52947878 53.51488927 -118.54995728 51.49404907 C-118.47059537 42.83180007 -117.12366056 35.80298512 -111.16721439 29.21985722 C-107.43853975 25.66945978 -103.37379848 23.80361627 -98.4609375 22.36328125 C-97.70728409 22.12695984 -96.95363068 21.89063843 -96.17713928 21.64715576 C-93.42155468 20.78961362 -90.65815263 19.96017583 -87.89453125 19.12890625 C-85.48777972 18.38977407 -83.08139182 17.64945721 -80.67529297 16.90820312 C-73.82885512 14.80439347 -66.9731101 12.73219339 -60.11450195 10.66845703 C-56.52297163 9.58777508 -52.93309839 8.50169644 -49.34363461 7.41417313 C-46.54146422 6.5659239 -43.73836879 5.72076521 -40.93499947 4.87648773 C-39.61078391 4.4772371 -38.28686498 4.07700109 -36.96327019 3.67569733 C-12.86758646 -3.62408226 -12.86758646 -3.62408226 0 0 Z " fill="#0064B4" transform="translate(161.89453125,10.87109375)"/>
<path d="M0 0 C0.79291946 0.21611435 1.58583893 0.4322287 2.40278625 0.65489197 C15.09431055 4.16723451 27.69568451 8.01238257 40.29760742 11.83129883 C44.06849308 12.97372695 47.84228891 14.10621299 51.61685467 15.236413 C54.56017988 16.1194244 57.50148293 17.00902668 60.44227028 17.90044975 C61.83327758 18.32097037 63.22498617 18.73917932 64.61743736 19.15489388 C83.96620847 24.93908307 83.96620847 24.93908307 88.41796875 30.44140625 C88.86785156 30.97378906 89.31773437 31.50617187 89.78125 32.0546875 C94.6202278 39.6343253 94.53981813 46.22255495 94.50952148 55.07202148 C94.5152306 56.48550454 94.52219695 57.89898298 94.53031921 59.31245422 C94.54821918 63.13950506 94.54708666 66.96632617 94.54137683 70.79340625 C94.53827627 74.0008247 94.54438798 77.20819957 94.55041558 80.4156118 C94.56445271 87.99578028 94.56291006 95.57583609 94.55151367 103.15600586 C94.54007028 110.93864227 94.55404595 118.72093255 94.58091015 126.50352329 C94.6031881 133.21216372 94.60967642 139.9206965 94.60383373 146.62937123 C94.60048718 150.62385749 94.60272215 154.61812275 94.62008476 158.61257744 C94.63574278 162.37943453 94.6313939 166.14578774 94.61277962 169.91262627 C94.60743264 171.92528992 94.62146874 173.93797723 94.63647461 175.95059204 C94.43236401 201.69434178 82.43642059 219.22982696 64.72460938 236.87646484 C48.93953633 252.22836929 28.990121 262.95482024 9.10546875 272.12890625 C7.87981201 272.70511719 7.87981201 272.70511719 6.62939453 273.29296875 C4.01177336 274.50569068 1.37631686 275.6667325 -1.26953125 276.81640625 C-2.07769287 277.19240967 -2.88585449 277.56841309 -3.71850586 277.95581055 C-10.29864457 280.70510651 -14.41542744 279.77405108 -20.89453125 277.12890625 C-21.56871094 276.88487061 -22.24289063 276.64083496 -22.9375 276.3894043 C-39.81821452 270.23354169 -56.36615691 261.69849076 -70.89453125 251.12890625 C-71.51134766 250.6896582 -72.12816406 250.25041016 -72.76367188 249.79785156 C-95.15615376 233.82022077 -112.98634387 215.0069145 -117.89453125 187.12890625 C-118.29627113 182.21773887 -118.3255339 177.33522921 -118.31445312 172.40942383 C-118.32181416 170.98531946 -118.3304062 169.56122101 -118.34011841 168.13713074 C-118.3621174 164.31085087 -118.3652765 160.48478763 -118.3633709 156.65845323 C-118.36325031 153.45016572 -118.37184925 150.24192269 -118.38014841 147.03364772 C-118.39930055 139.46226095 -118.40229466 131.89098441 -118.39550781 124.31958008 C-118.38885667 116.53323204 -118.41179308 108.74735646 -118.44882154 100.96110421 C-118.47957982 94.24733802 -118.49087245 87.53372347 -118.48698473 80.81988829 C-118.48492541 76.8222678 -118.49027073 72.82501623 -118.51487732 68.82746315 C-118.53724725 65.07031431 -118.53518303 61.31393318 -118.5149498 57.55677986 C-118.50995265 55.53584209 -118.52947878 53.51488927 -118.54995728 51.49404907 C-118.47059537 42.83180007 -117.12366056 35.80298512 -111.16721439 29.21985722 C-107.43853975 25.66945978 -103.37379848 23.80361627 -98.4609375 22.36328125 C-97.70728409 22.12695984 -96.95363068 21.89063843 -96.17713928 21.64715576 C-93.42155468 20.78961362 -90.65815263 19.96017583 -87.89453125 19.12890625 C-85.48777972 18.38977407 -83.08139182 17.64945721 -80.67529297 16.90820312 C-73.82885512 14.80439347 -66.9731101 12.73219339 -60.11450195 10.66845703 C-56.52297163 9.58777508 -52.93309839 8.50169644 -49.34363461 7.41417313 C-46.54146422 6.5659239 -43.73836879 5.72076521 -40.93499947 4.87648773 C-39.61078391 4.4772371 -38.28686498 4.07700109 -36.96327019 3.67569733 C-12.86758646 -3.62408226 -12.86758646 -3.62408226 0 0 Z M-68.89453125 82.44140625 C-69.6316333 82.50026001 -70.36873535 82.55911377 -71.12817383 82.61975098 C-79.77175241 83.33538945 -88.34079436 84.44258045 -96.921875 85.68823242 C-98.3671759 85.89643742 -98.3671759 85.89643742 -99.8416748 86.10884857 C-102.19279656 86.44771083 -104.54374112 86.78775238 -106.89453125 87.12890625 C-106.96425164 99.6992349 -107.01745413 112.26951702 -107.04996777 124.84000015 C-107.06557804 130.67790847 -107.08673121 136.51568381 -107.12084961 142.35351562 C-107.1536089 147.99453781 -107.1714191 153.63543264 -107.17916298 159.27654266 C-107.18467685 161.42136386 -107.19544359 163.56617862 -107.21172142 165.71094513 C-107.37793842 188.53349835 -103.2401629 206.5243828 -86.99389648 223.45361328 C-68.79529807 241.78896848 -40.28462814 262.29711837 -14.89453125 268.12890625 C-8.91059517 267.84773335 -4.11381284 265.74003705 1.23046875 263.25390625 C2.09502686 262.85606934 2.95958496 262.45823242 3.8503418 262.04833984 C19.62874731 254.69957127 34.43713752 246.96169547 48.10546875 236.12890625 C49.0490625 235.40703125 49.99265625 234.68515625 50.96484375 233.94140625 C67.0034808 221.49931205 79.91870413 205.62401565 83.10546875 185.12890625 C83.35237519 181.74693756 83.36020436 178.38732151 83.33251953 174.99755859 C83.33281158 174.04024841 83.33310364 173.08293823 83.33340454 172.09661865 C83.33202424 168.96926433 83.31652487 165.84215585 83.30078125 162.71484375 C83.29704649 160.53195323 83.29420171 158.34906102 83.29220581 156.16616821 C83.28460581 150.44845877 83.2649888 144.73085254 83.24279785 139.01318359 C83.22226084 133.16765743 83.21318735 127.32211442 83.203125 121.4765625 C83.18173925 110.02729865 83.14764756 98.57811107 83.10546875 87.12890625 C79.81216381 86.63524816 76.51755384 86.15087276 73.22265625 85.66796875 C71.84436646 85.46119507 71.84436646 85.46119507 70.43823242 85.25024414 C63.65331734 84.26220767 56.91981549 83.68410267 50.0703125 83.42089844 C47.00549691 83.30158338 44.02715054 83.11685068 40.99365234 82.64990234 C36.33014146 82.02501648 31.7102193 81.77632707 27.01171875 81.58203125 C26.01619995 81.54039856 25.02068115 81.49876587 23.99499512 81.45587158 C10.86895422 80.95253613 -2.26020433 80.88677981 -15.39453125 80.87890625 C-16.38791504 80.87780161 -16.38791504 80.87780161 -17.40136719 80.87667465 C-34.59737117 80.86116847 -51.74467738 81.05224153 -68.89453125 82.44140625 Z " fill="#002050" transform="translate(161.89453125,10.87109375)"/>
<path d="M0 0 C3.3 0 6.6 0 10 0 C11.65 5.94 13.3 11.88 15 18 C17.16575619 14.75136571 18.62352411 11.39377143 20.125 7.8125 C20.40214844 7.15830078 20.67929688 6.50410156 20.96484375 5.83007812 C21.64597045 4.22120988 22.32335403 2.61075785 23 1 C26.3 1 29.6 1 33 1 C32.85843505 4.52105163 32.71189095 8.04177889 32.5625 11.5625 C32.52318359 12.55314453 32.48386719 13.54378906 32.44335938 14.56445312 C32.21827654 19.77598637 31.85894761 24.85353238 31 30 C29.02 30 27.04 30 25 30 C25 23.73 25 17.46 25 11 C22.69 16.94 20.38 22.88 18 29 C16.02 29 14.04 29 12 29 C10.02 22.4 8.04 15.8 6 9 C5.71141577 14.13024568 5.71141577 14.13024568 5.43188477 19.26098633 C5.24715282 22.37409057 4.99049694 25.02850917 4 28 C2.35 28 0.7 28 -1 28 C-1.14256667 18.60644064 -0.72492332 9.35927791 0 0 Z " fill="#F6F9FC" transform="translate(177,150)"/>
<path d="M0 0 C2.64 0 5.28 0 8 0 C10.68114045 6.86828319 13.30968288 13.75228915 15.8125 20.6875 C16.23144531 21.84636719 16.65039062 23.00523437 17.08203125 24.19921875 C18 27 18 27 18 29 C15.69 29 13.38 29 11 29 C10.34 27.02 9.68 25.04 9 23 C5.37 23 1.74 23 -2 23 C-2.33 24.98 -2.66 26.96 -3 29 C-5.31 29 -7.62 29 -10 29 C-9.34741705 25.23185973 -8.29013667 21.83458532 -6.93359375 18.26171875 C-6.53076172 17.19501953 -6.12792969 16.12832031 -5.71289062 15.02929688 C-5.29201172 13.92650391 -4.87113281 12.82371094 -4.4375 11.6875 C-4.01275391 10.56537109 -3.58800781 9.44324219 -3.15039062 8.28710938 C-2.10371244 5.52340854 -1.05347135 2.76111699 0 0 Z " fill="#F0F6FA" transform="translate(152,149)"/>
<path d="M0 0 C3.6875 -0.3125 3.6875 -0.3125 7 0 C5.47876588 4.28711434 3.27064273 7.90734871 0.828125 11.71875 C-0.25069929 14.0121088 -0.25069929 14.0121088 0.6640625 16.484375 C2.01656744 19.03119717 3.48011706 21.38200427 5.125 23.75 C8 27.90430622 8 27.90430622 8 29 C5.36 29 2.72 29 0 29 C-1.65 26.03 -3.3 23.06 -5 20 C-5.35191406 20.721875 -5.70382813 21.44375 -6.06640625 22.1875 C-7.55885877 24.99315486 -8.99986675 27.52695021 -11 30 C-14.875 30.625 -14.875 30.625 -18 30 C-16.77691086 26.55311243 -15.16685481 23.65453827 -13.25 20.5625 C-11.2261907 16.97315278 -11.2261907 16.97315278 -11.375 12.875 C-13.05226749 9.90752674 -14.88285755 7.20234464 -16.9765625 4.515625 C-18 3 -18 3 -18 1 C-15.36 1 -12.72 1 -10 1 C-8.68 3.64 -7.36 6.28 -6 9 C-4.27310231 6.77970298 -2.92078807 4.82573376 -1.75 2.25 C-0.88375 1.13625 -0.88375 1.13625 0 0 Z " fill="#F1F6FB" transform="translate(131,149)"/>
<path d="M0 0 C5.61 0 11.22 0 17 0 C17 1.65 17 3.3 17 5 C13.7 5 10.4 5 7 5 C7 7.31 7 9.62 7 12 C10.3 11.67 13.6 11.34 17 11 C17 12.65 17 14.3 17 16 C14.03 16.33 11.06 16.66 8 17 C8 18.98 8 20.96 8 23 C11.63 23 15.26 23 19 23 C19 24.65 19 26.3 19 28 C10.585 28.495 10.585 28.495 2 29 C1.66344936 25.29193314 1.33064574 21.5835941 1 17.875 C0.90460938 16.82828125 0.80921875 15.7815625 0.7109375 14.703125 C0.62070313 13.68476563 0.53046875 12.66640625 0.4375 11.6171875 C0.35371094 10.68503418 0.26992187 9.75288086 0.18359375 8.79248047 C-0.00872249 5.86732996 0 2.93146568 0 0 Z " fill="#F6F9FC" transform="translate(89,151)"/>
<path d="M0 0 C1.98 0 3.96 0 6 0 C9 6.5 9 6.5 9 11 C9.66 11 10.32 11 11 11 C11.13277344 10.37351562 11.26554687 9.74703125 11.40234375 9.1015625 C11.57894531 8.28429688 11.75554687 7.46703125 11.9375 6.625 C12.11152344 5.81289063 12.28554687 5.00078125 12.46484375 4.1640625 C13 2 13 2 14 0 C15.98 0 17.96 0 20 0 C20 5.94 20 11.88 20 18 C18.68 18 17.36 18 16 18 C15.67 15.03 15.34 12.06 15 9 C14.01 11.97 13.02 14.94 12 18 C10.68 18 9.36 18 8 18 C7.01 15.36 6.02 12.72 5 10 C4.67 12.64 4.34 15.28 4 18 C2.68 18 1.36 18 0 18 C0 12.06 0 6.12 0 0 Z " fill="#E8EBEF" transform="translate(96,52)"/>
<path d="M0 0 C2.375 1.125 2.375 1.125 4 3 C4.62060815 6.64607289 4.47464453 8.30628876 2.375 11.375 C-0.71186432 13.48706506 -2.3282913 13.61195145 -6 13 C-8.4375 11.4375 -8.4375 11.4375 -10 9 C-9.9375 5.375 -9.9375 5.375 -9 2 C-5.51131349 -0.32579101 -4.10281481 -0.41865457 0 0 Z " fill="#F0F2F5" transform="translate(158,57)"/>
<path d="M0 0 C2.41288502 1.52816051 2.89215986 2.72680498 3.9375 5.375 C4 8 4 8 2.5 10.8125 C0 13 0 13 -3.5625 13.5 C-7 13 -7 13 -8.9375 11.9375 C-10.6140629 8.88023824 -10.36528977 6.4093712 -10 3 C-7.77766882 -1.05248626 -4.20052866 -0.45005664 0 0 Z " fill="#ECEEF2" transform="translate(185,57)"/>
<path d="M0 0 C1.2065625 0.0309375 1.2065625 0.0309375 2.4375 0.0625 C2.4375 1.0525 2.4375 2.0425 2.4375 3.0625 C1.4475 3.0625 0.4575 3.0625 -0.5625 3.0625 C-0.5625 4.0525 -0.5625 5.0425 -0.5625 6.0625 C0.0975 6.0625 0.7575 6.0625 1.4375 6.0625 C1.4375 7.0525 1.4375 8.0425 1.4375 9.0625 C0.7775 9.0625 0.1175 9.0625 -0.5625 9.0625 C-0.5625 12.3625 -0.5625 15.6625 -0.5625 19.0625 C-1.8825 19.0625 -3.2025 19.0625 -4.5625 19.0625 C-4.5625 15.7625 -4.5625 12.4625 -4.5625 9.0625 C-5.2225 9.0625 -5.8825 9.0625 -6.5625 9.0625 C-6.5625 8.0725 -6.5625 7.0825 -6.5625 6.0625 C-5.9025 6.0625 -5.2425 6.0625 -4.5625 6.0625 C-4.418125 5.258125 -4.27375 4.45375 -4.125 3.625 C-3.347189 0.08163876 -3.347189 0.08163876 0 0 Z " fill="#E8EBEF" transform="translate(196.5625,50.9375)"/>
<path d="M0 0 C0 0.99 0 1.98 0 3 C-1.32 3 -2.64 3 -4 3 C-4 3.66 -4 4.32 -4 5 C-2.68 5.33 -1.36 5.66 0 6 C0.625 8.375 0.625 8.375 1 11 C-1 13 -1 13 -4.625 13.125 C-5.73875 13.08375 -6.8525 13.0425 -8 13 C-8 12.01 -8 11.02 -8 10 C-6.35 9.67 -4.7 9.34 -3 9 C-3.825 8.608125 -4.65 8.21625 -5.5 7.8125 C-6.325 7.214375 -7.15 6.61625 -8 6 C-8.3125 3.3125 -8.3125 3.3125 -8 1 C-5.29120665 -0.35439668 -2.99066732 -0.06501451 0 0 Z " fill="#EAECF0" transform="translate(172,57)"/>
<path d="M0 0 C0.99 0 1.98 0 3 0 C3 0.99 3 1.98 3 3 C3.99 3 4.98 3 6 3 C6 3.99 6 4.98 6 6 C5.34 6 4.68 6 4 6 C4 8.31 4 10.62 4 13 C4.66 13 5.32 13 6 13 C6 13.99 6 14.98 6 16 C4.33388095 16.042721 2.66617115 16.04063832 1 16 C0 15 0 15 -0.09765625 12.93359375 C-0.08025391 11.69802734 -0.08025391 11.69802734 -0.0625 10.4375 C-0.05347656 9.61121094 -0.04445312 8.78492188 -0.03515625 7.93359375 C-0.02355469 7.29550781 -0.01195312 6.65742187 0 6 C-0.66 6 -1.32 6 -2 6 C-2 5.01 -2 4.02 -2 3 C-1.34 3 -0.68 3 0 3 C0 2.01 0 1.02 0 0 Z " fill="#EDEFF3" transform="translate(202,54)"/>
<path d="M0 0 C0 0.99 0 1.98 0 3 C-1.65 3 -3.3 3 -5 3 C-5 5.31 -5 7.62 -5 10 C-3.35 10 -1.7 10 0 10 C0 10.99 0 11.98 0 13 C-3.51903714 13.31991247 -5.42015168 13.37169764 -8.4375 11.4375 C-10 9 -10 9 -9.9375 5.375 C-8.34409134 -0.36127119 -5.34762882 -0.23767239 0 0 Z " fill="#EDF0F3" transform="translate(136,57)"/>
<path d="M0 0 C2.64 0 5.28 0 8 0 C8 0.99 8 1.98 8 3 C7.01 3.33 6.02 3.66 5 4 C4.67 6.97 4.34 9.94 4 13 C2.68 13 1.36 13 0 13 C0 8.71 0 4.42 0 0 Z " fill="#F3F4F7" transform="translate(139,57)"/>
<path d="M0 0 C1.32 0 2.64 0 4 0 C4 4.29 4 8.58 4 13 C2.68 13 1.36 13 0 13 C0 8.71 0 4.42 0 0 Z " fill="#E6E9ED" transform="translate(120,57)"/>
<path d="M0 0 C0.66 0 1.32 0 2 0 C3.31626692 3.61973402 4 6.09567131 4 10 C1.69 10 -0.62 10 -3 10 C-2.01 6.7 -1.02 3.4 0 0 Z " fill="#1F77BE" transform="translate(155,157)"/>
<path d="M0 0 C1.67542976 0.28604898 3.34385343 0.61781233 5 1 C5 2.65 5 4.3 5 6 C3.34385343 6.38218767 1.67542976 6.71395102 0 7 C-1 6 -1 6 -1.125 3.5 C-1 1 -1 1 0 0 Z " fill="#1E3A64" transform="translate(153,60)"/>
<path d="M0 0 C1.32 0 2.64 0 4 0 C4 1.98 4 3.96 4 6 C2.0625 6.5625 2.0625 6.5625 0 7 C-1 6 -1 6 -1.125 3.5 C-1 1 -1 1 0 0 Z " fill="#072655" transform="translate(180,60)"/>
<path d="M0 0 C2.92879371 0.62759865 5.36095629 1.58622659 8 3 C8 3.33 8 3.66 8 4 C6.02 4 4.04 4 2 4 C1.67 4.66 1.34 5.32 1 6 C0.34 5.67 -0.32 5.34 -1 5 C-0.67 3.35 -0.34 1.7 0 0 Z " fill="#173460" transform="translate(162,63)"/>
</svg>
