<?xml version="1.0" encoding="UTF-8"?>
<svg id="Layer_1" data-name="Layer 1" xmlns="http://www.w3.org/2000/svg" viewBox="0 0 204.56 200.77">
  <defs>
    <style>
      .cls-1 {
        fill: #2eaae1;
      }

      .cls-1, .cls-2, .cls-3, .cls-4 {
        stroke-width: 0px;
      }

      .cls-2, .cls-3 {
        fill: #424244;
      }

      .cls-3 {
        opacity: .1;
      }

      .cls-4 {
        fill: #b5d338;
      }
    </style>
  </defs>
  <path class="cls-2" d="M13.15,127.48v1.62h-5.43v13.79h-1.66v-13.79H.61v-1.62h12.54Z"/>
  <path class="cls-2" d="M23.22,136.05v6.84h-1.66v-6.84c0-2.19-.95-3.23-2.96-3.23-1.34,0-2.52.37-3.3.69v9.38h-1.66v-15.91h1.66v4.92c.88-.37,2.1-.74,3.49-.74,2.82,0,4.43,1.78,4.43,4.9Z"/>
  <path class="cls-2" d="M34.35,137.3c0,.44-.05.81-.05.81h-8.41c.21,2.31,1.36,3.3,3.74,3.3,1.69,0,2.98-.28,3.95-.85v1.71c-1.11.53-2.47.81-4.11.81-2.4,0-5.26-.99-5.26-5.8,0-1.22-.18-6.12,5.06-6.12s5.08,5.7,5.08,6.14ZM32.64,136.63c0-.55-.18-3.9-3.37-3.9-2.26,0-3.21,1.06-3.37,3.9h6.74Z"/>
  <path class="cls-2" d="M33.21,153.25h-13.82v35.47h-5.63v-35.47H0v-5.32h33.21v5.32Z"/>
  <path class="cls-2" d="M53.08,182.18v5.08c-2.87,1.22-6.48,2.02-10.82,2.02-6.42,0-14.06-2.69-14.06-15.41,0-3.98,0-16.14,13.51-16.14,8.19,0,13.45,5.81,13.45,14.74,0,1.47-.06,2.87-.18,4.22h-21.04c.86,6.36,4.59,7.77,8.62,7.77,4.53,0,7.95-.92,10.52-2.26ZM33.88,171.6h15.65c-.31-3.55-1.77-8.87-7.83-8.87-5.14,0-7.34,2.32-7.83,8.87Z"/>
  <path class="cls-2" d="M79.99,182.18v5.32c-2.63,1.04-5.69,1.71-8.99,1.71-9.3,0-14.37-5.63-14.37-15.78s5.08-15.72,14.37-15.72c3.3,0,6.36.67,8.99,1.71v5.32c-2.45-1.16-5.32-2.02-8.5-2.02-4.65,0-8.99,1.35-8.99,10.7s4.34,10.7,8.99,10.7c3.18,0,6.05-.79,8.5-1.96Z"/>
  <path class="cls-2" d="M108.18,170.74v17.98h-5.63v-18.16c0-6.67-3.67-7.46-6.85-7.46-2.94,0-5.63.73-7.52,1.47v24.16h-5.63v-42.13h5.63v12.66c2.2-.86,4.95-1.53,8.07-1.53,7.58,0,11.92,4.71,11.92,13.03Z"/>
  <path class="cls-2" d="M144.75,166.1v19.87c-4.53,2.14-9.36,3.24-14.37,3.24-8.68,0-18.96-3.61-18.96-20.91s10.27-20.85,18.96-20.85c4.46,0,8.81.79,12.84,2.38v5.2c-3.85-1.59-7.95-2.45-12.29-2.45-6.42,0-13.82,1.77-13.82,15.72s7.46,15.78,13.94,15.78c2.81,0,5.56-.43,8.19-1.16v-11.5h-8.32v-5.32h13.82Z"/>
  <path class="cls-2" d="M174.53,158.21v17.67c0,8.5-4.71,13.39-12.9,13.39s-12.9-4.89-12.9-13.39v-17.67h5.56v18.1c0,5.56,2.26,8.01,7.34,8.01s7.28-2.45,7.28-8.01v-18.1h5.63Z"/>
  <path class="cls-2" d="M204.56,158.21l-12.54,33.76c-2.69,7.28-6.61,8.81-9.48,8.81-1.41,0-2.87-.18-4.28-.49v-5.01c1.16.31,2.32.49,3.42.49,3.06,0,5.01-3.67,6.12-7.03l-11.5-30.51h5.99l8.2,22.87,8.07-22.87h5.99Z"/>
  <polygon class="cls-2" points="86.1 77.07 80.38 77.07 80.38 61.26 63.01 46.7 63.01 13.36 68.72 13.36 68.72 44.04 86.1 58.6 86.1 77.07"/>
  <path class="cls-2" d="M66.28,16.22c-4.47,0-8.11-3.64-8.11-8.11S61.81,0,66.28,0s8.11,3.64,8.11,8.11-3.64,8.11-8.11,8.11ZM66.28,5.71c-1.32,0-2.4,1.08-2.4,2.4s1.07,2.4,2.4,2.4,2.4-1.08,2.4-2.4-1.08-2.4-2.4-2.4Z"/>
  <rect class="cls-2" x="62.77" y="22.19" width="5.71" height="45.96" transform="translate(-11.15 66.46) rotate(-50.04)"/>
  <path class="cls-2" d="M45.31,35.02c-4.47,0-8.11-3.64-8.11-8.11s3.64-8.11,8.11-8.11,8.11,3.64,8.11,8.11-3.64,8.11-8.11,8.11ZM45.31,24.51c-1.32,0-2.4,1.08-2.4,2.4s1.08,2.4,2.4,2.4,2.4-1.08,2.4-2.4-1.07-2.4-2.4-2.4Z"/>
  <polygon class="cls-2" points="95.14 77.07 89.43 77.07 89.43 55.7 76.57 46.65 76.57 31.87 82.29 31.87 82.29 43.69 95.14 52.73 95.14 77.07"/>
  <path class="cls-2" d="M79.43,34.72c-4.47,0-8.11-3.64-8.11-8.11s3.64-8.11,8.11-8.11,8.11,3.64,8.11,8.11-3.64,8.11-8.11,8.11ZM79.43,24.22c-1.32,0-2.4,1.07-2.4,2.4s1.07,2.4,2.4,2.4,2.4-1.08,2.4-2.4-1.08-2.4-2.4-2.4Z"/>
  <rect class="cls-2" x="99.42" y="11.39" width="5.71" height="64.67"/>
  <path class="cls-2" d="M102.28,16.24c-4.47,0-8.11-3.64-8.11-8.11S97.81.02,102.28.02s8.11,3.64,8.11,8.11-3.64,8.11-8.11,8.11ZM102.28,5.73c-1.32,0-2.4,1.08-2.4,2.4s1.07,2.4,2.4,2.4,2.4-1.08,2.4-2.4-1.08-2.4-2.4-2.4Z"/>
  <polygon class="cls-2" points="124.33 77.07 118.62 77.07 118.62 58.6 135.99 44.04 135.99 13.36 141.71 13.36 141.71 46.7 124.33 61.26 124.33 77.07"/>
  <path class="cls-2" d="M138.43,16.22c-4.47,0-8.11-3.64-8.11-8.11s3.64-8.11,8.11-8.11,8.11,3.64,8.11,8.11-3.64,8.11-8.11,8.11ZM138.43,5.71c-1.32,0-2.4,1.08-2.4,2.4s1.08,2.4,2.4,2.4,2.4-1.08,2.4-2.4-1.07-2.4-2.4-2.4Z"/>
  <rect class="cls-2" x="116.11" y="42.32" width="45.96" height="5.71" transform="translate(3.45 99.83) rotate(-39.94)"/>
  <path class="cls-2" d="M159.41,35.02c-4.47,0-8.11-3.64-8.11-8.11s3.64-8.11,8.11-8.11,8.11,3.64,8.11,8.11-3.64,8.11-8.11,8.11ZM159.41,24.51c-1.32,0-2.4,1.08-2.4,2.4s1.07,2.4,2.4,2.4,2.4-1.08,2.4-2.4-1.08-2.4-2.4-2.4Z"/>
  <polygon class="cls-2" points="115.28 77.07 109.57 77.07 109.57 52.73 122.43 43.69 122.43 31.87 128.14 31.87 128.14 46.65 115.28 55.7 115.28 77.07"/>
  <path class="cls-2" d="M125.28,34.72c-4.47,0-8.11-3.64-8.11-8.11s3.64-8.11,8.11-8.11,8.11,3.64,8.11,8.11-3.64,8.11-8.11,8.11ZM125.28,24.22c-1.32,0-2.4,1.07-2.4,2.4s1.08,2.4,2.4,2.4,2.4-1.08,2.4-2.4-1.07-2.4-2.4-2.4Z"/>
  <path class="cls-1" d="M77.75,77.98c4.9,0,8.87,3.97,8.87,8.87v24.09c0,4.9-3.97,8.87-8.87,8.87h-35.07c-4.9,0-8.87-3.97-8.87-8.87l-4.54-32.95h48.48"/>
  <path class="cls-4" d="M126.26,77.98h48.48s-4.54,32.95-4.54,32.95c0,4.9-3.97,8.87-8.87,8.87h-35.07c-4.9,0-8.87-3.97-8.87-8.87v-24.09c0-4.9,3.97-8.87,8.87-8.87"/>
  <path class="cls-2" d="M173.9,78.92l-4.33,31.47c0,4.68-3.79,8.47-8.47,8.47h-33.49c-4.68,0-8.47-3.79-8.47-8.47v-23c0-4.68,3.79-8.47,8.47-8.47h46.3M180.46,73.2h-52.85c-7.82,0-14.18,6.36-14.18,14.18v23c0,7.82,6.36,14.18,14.18,14.18h33.49c7.67,0,13.94-6.12,14.18-13.74l4.29-31.13.89-6.49h0Z"/>
  <path class="cls-2" d="M76.96,78.92c4.68,0,8.47,3.79,8.47,8.47v23c0,4.68-3.79,8.47-8.47,8.47h-33.49c-4.68,0-8.47-3.79-8.47-8.47l-4.33-31.47h46.3M76.96,73.2H24.11l.89,6.49,4.29,31.13c.23,7.62,6.5,13.74,14.18,13.74h33.49c7.82,0,14.18-6.36,14.18-14.18v-23c0-7.82-6.36-14.18-14.18-14.18h0Z"/>
  <polygon class="cls-2" points="120.5 81.77 84.61 81.77 84.61 76.06 121.47 76.06 120.5 81.77"/>
  <path class="cls-3" d="M76.96,78.56H30.66l3.09,22.41,50.87-17.55c-1.36-2.87-4.27-4.86-7.65-4.86Z"/>
  <path class="cls-3" d="M173.9,78.56h-46.3c-4.68,0-8.47,3.79-8.47,8.47v12.53l54.47-18.79.3-2.2Z"/>
</svg>